<?xml version="1.0" standalone="no"?><!DOCTYPE svg PUBLIC "-//W3C//DTD SVG 1.1//EN" "http://www.w3.org/Graphics/SVG/1.1/DTD/svg11.dtd"><svg t="1639555583378" class="icon" viewBox="0 0 1024 1024" version="1.1" xmlns="http://www.w3.org/2000/svg" p-id="569" xmlns:xlink="http://www.w3.org/1999/xlink" width="200" height="200"><defs><style type="text/css"></style></defs><path d="M664.078386 460.096978a132.31 78.26 52.366 1 0 123.952482-95.573492 132.31 78.26 52.366 1 0-123.952482 95.573492Z" fill="#E2B760" p-id="570"></path><path d="M669.203025 455.819462a124.77 71.6 52.366 1 0 113.404009-87.440098 124.77 71.6 52.366 1 0-113.404009 87.440098Z" fill="#F9D98A" p-id="571"></path><path d="M737.53 422.11l1.73 2.07 16.32-13.64c0.54-0.75 1.09-1.5 1.64-2.25 2.33-1.07 4.19-1.3 5.57-0.7 0.58 0.69 0.75 1.43 0.52 2.2 0.38 1.16 1.29 2.59 2.73 4.32 0.6 0.38 0.98 0.65 1.13 0.82 0.4 0.84 1.13 1.7 2.16 2.59 1.18 1.07 1.99 1.86 2.42 2.37 0.58 0.69 0.69 1.18 0.35 1.47-1.38 1.16-2.59 2.16-3.63 3.03-0.17 0.15-0.27 0.38-0.3 0.69-1.38 1.16-2.27 1.32-2.68 0.48l-6.71-8.03c-5.87 4.91-11.75 9.81-17.62 14.72-4.66 3.9-8.04 6.87-10.14 8.92-2.59 2.16-5.01 4.19-7.25 6.06l1.08 1.29 5.63 6.74c0.12 0.49 0.08 0.81-0.09 0.95l-0.26 0.22c-0.75 1.21-2.32 2.67-4.71 4.37-0.52 0.43-1.08 0.46-1.69 0.09-0.12-0.49-2.41-3.41-6.88-8.76-0.57-0.69-1.01-1.21-1.3-1.55-0.32-0.03-0.79-0.07-1.43-0.13-0.78-0.23-1.38-0.6-1.82-1.12-0.7-1.18-0.32-2.66 1.12-4.45 0.83-0.4 1.84-0.95 3.02-1.65l16.32-13.64c-0.43-0.52-1.24-1.31-2.42-2.37-0.87-1.04-1.52-1.81-1.95-2.33-1.04-0.89-1.13-1.7-0.26-2.42 0.35-0.29 0.85-0.56 1.51-0.82 0.66-0.26 1.18-0.69 1.55-1.3 0.17-0.14 0.43-0.36 0.78-0.65l0.26-0.22c1.24-1.32 2.43-1.3 3.59 0.08 0.29 0.35 0.56 0.85 0.82 1.51 0.28 0.67 0.57 1.02 0.89 1.04z m21.48 6.24l0.65 0.78 3.9 4.66c3.92-2.68 7.78-5.77 11.61-9.26 2.42-2.02 3.93-3.72 4.53-5.11l1.73 2.07c1.85 4.32 2.12 7.62 0.79 9.9l-0.26 0.22c-1.04 0.87-2.56 1.85-4.58 2.94-1.01 0.55-2.02 1.1-3.02 1.65-0.17 0.15-0.43 0.36-0.78 0.65-1.35 0.84-2.97 1.9-4.84 3.16 5.49 6.57 10.1 12.09 13.85 16.58 2.42 3.25 0.51 7.64-5.73 13.15-4.27 2.97-7.46 3.01-9.59 0.1l-1.52-1.81c1.85-0.95 3.47-2.16 4.88-3.64 3.37-1.93 3.51-4.4 0.42-7.39l-9.74-11.66c-1.04 0.87-2.16 1.81-3.37 2.81l-3.63 3.03c-1.21 1.01-2.33 1.95-3.37 2.81-8.46 7.07-14.21 12.31-17.22 15.71-1.09 1.51-2.25 2.76-3.45 3.77-0.87 0.72-1.65 0.65-2.38-0.21-0.46-0.2-0.96-0.8-1.51-1.81-0.4-0.83-0.82-1.51-1.26-2.03-0.14-0.17-0.35-0.59-0.61-1.25-0.12-0.49-0.23-0.98-0.35-1.47 0.89-1.04 1.77-1.92 2.63-2.64 1.04-0.87 1.96-1.34 2.76-1.43 1.93-1.9 4.45-4.16 7.55-6.75 2.79-2.62 6.69-6.03 11.7-10.21 2.59-2.16 5.18-4.33 7.77-6.49l-3.03-3.63c-0.29-0.34-0.88-0.87-1.77-1.6-0.92-0.4-1.52-0.93-1.78-1.6-1.04-0.89-1.13-1.7-0.26-2.42 0.17-0.14 0.76-0.48 1.77-1.04 1.18-0.69 2.13-1.48 2.85-2.38 0.31 0.03 0.56-0.03 0.73-0.17 1.04-0.87 1.99-0.78 2.85 0.26 0.59 0.99 0.94 1.58 1.08 1.75z m-4.36 32.68l0.99-0.39c0.14 0.17 0.38 0.28 0.69 0.3 0.29 0.35 0.42 0.68 0.39 0.99 0.12 0.49 0.33 0.75 0.65 0.78 0.3 5.62-1.64 11.2-5.81 16.73-0.2 0.46-0.62 0.67-1.25 0.61-0.87 0.72-2.08-0.02-3.63-2.24-0.92-0.4-1.74-1.03-2.47-1.9-1.61-1.58-0.87-3.67 2.24-6.27 1.38-1.15 3.14-2.91 5.27-5.28 1.26-1.64 2.24-2.75 2.93-3.33zM669.04 362.7c1.32 8.27-0.18 15.81-4.47 22.6-3.09 2.28-6.18 2.07-9.29-0.62 4.64-5.32 6.78-11.2 6.42-17.63l-0.17-0.74c-0.52-1.32-0.59-2.29-0.21-2.9-0.32-0.03-0.13-0.33 0.56-0.91 0.66-0.26 1.38-0.27 2.16-0.04 1.77-0.29 3.44-0.22 5 0.24z m27.03 55.22l-0.22-0.26c-0.61-0.37-1.04-0.89-1.29-1.56-0.26-0.66-0.53-1.17-0.82-1.51-1.73-2.08-3.67-4.41-5.83-7.01-1.7-2.39-4.34-5.75-7.94-10.08-0.21 0.46-0.4 0.93-0.61 1.38-0.67 2.02-1.24 3.08-1.73 3.2-2.91 2.13-6.1 2-9.55-0.4 5.19-6.07 7.09-13.65 5.69-22.73 0.03-0.31 0.21-0.62 0.56-0.91 0.34-0.29 1-0.39 1.95-0.3 2.54 0.24 4.35 0.48 5.44 0.74 0.55 1.01 0.59 4.05 0.12 9.12l19.21 23.1c1.15 1.38 1.13 2.42-0.05 3.11l-1.56 1.29c-0.49 0.11-0.92 0.47-1.3 1.08-0.38 0.6-0.65 0.98-0.82 1.12-0.69 0.59-1.1 0.79-1.25 0.62z m-17.54-41.16l-1.38-0.61c1.07-4.69-0.16-10.4-3.7-17.12-0.98-1.52-1.44-2.6-1.38-3.24 0.03-0.31 0.21-0.62 0.56-0.91 0.49-0.11 0.98-0.22 1.47-0.34 0.46 0.21 1.04 0.02 1.73-0.56 1.35-0.83 2.32-0.9 2.9-0.21 0.29 0.35 0.68 1.34 1.16 2.98 0.26 0.66 0.51 1.33 0.78 1.99 0.31 0.03 0.56-0.03 0.73-0.17l10.12-8.42c0.86-0.72 1.44-0.9 1.73-0.56 1.15 1.39 2.23 2.68 3.24 3.89 0.58 0.69 0.36 1.31-0.65 1.86l-4.41 3.67c0.29 0.35 0.42 0.68 0.39 0.99l0.22 0.26c1.24 2.2 2.95 4.43 5.13 6.7l5.71-4.75c1.38-1.15 2.65-1.03 3.8 0.35l0.43 0.52c0.43 0.52 0.79 0.95 1.08 1.3 0.32 0.03 0.55 0.13 0.69 0.3 0.55 1.01 0.49 1.64-0.18 1.9-1.04 0.86-2.08 1.73-3.11 2.59-1.01 0.55-2.38 1.54-4.11 2.98l3.88 4.67 5.19-4.32c1.04-0.86 1.77-1.04 2.21-0.52 0.12 0.49 1.19 1.79 3.24 3.89 0.29 0.35 0.17 0.73-0.35 1.17l-5.97 4.96 0.86 1.04c1.58 1.91 2.95 3.55 4.1 4.93 0.34-0.29 0.88-0.87 1.6-1.77 0.69-0.57 1.23-1.16 1.6-1.77l0.52-0.43c0.9-1.03 1.81-2.39 2.77-4.06l1.77 1.6c2.27 3.09 2.77 5.45 1.5 7.09-0.37 0.6-1.67 1.68-3.89 3.24-3.52 3.52-7.1 7.66-10.73 12.44-0.37 0.61-0.91 1.2-1.6 1.77-0.87 0.72-1.4 1.31-1.6 1.77-0.52 0.43-0.94 0.63-1.25 0.6-0.46-0.2-0.98-0.65-1.55-1.34l-1.29-1.56c-0.89-0.72-1.22-1.47-0.99-2.25l0.91-2.07c-1.13-1.7-3.26-4.45-6.43-8.26-0.72-0.86-1.44-1.73-2.16-2.6-0.14-0.17-0.45-0.35-0.91-0.56l-1.29-1.56c-0.43-0.52-0.46-1.08-0.08-1.69 0.86-0.72 1.73-1.44 2.6-2.16 0.17-0.14 0.43-0.36 0.78-0.65 1.21-1 2.25-0.99 3.11 0.05 0.69 1.18 1.11 1.86 1.25 2.03 1.52 2.54 3.53 5.12 6 7.74 0.72 0.87 1.44 1.73 2.16 2.6 0.17-0.14 0.6-0.5 1.3-1.08 0.55-0.74 0.92-1.35 1.13-1.81a35.26 35.26 0 0 0-2.98-4.11l-6.04-7.27-4.53-5.45-1.56 1.29c-0.87 0.72-1.93 1.9-3.2 3.54-1.27 1.64-2.32 2.67-3.16 3.07-1.04 0.86-1.92 0.86-2.64 0l-0.86-1.04c-0.26-0.66-0.6-1.25-1.04-1.77-0.57-0.69-0.89-1.6-0.95-2.72l0.26-0.22c0.55-0.74 1.27-1.64 2.16-2.68 0.69-0.57 1.53-0.98 2.51-1.21l4.15-3.45c-1.29-1.56-2.59-3.11-3.88-4.67-0.29-0.34-0.74-0.71-1.34-1.08-0.61-0.37-1.04-0.89-1.29-1.56-0.58 1.07-1.2 1.73-1.86 1.99 1.26 5.39 1.11 8.73-0.44 10.03-1.7 0.82-3.24 1.08-4.65 0.79z m48.98-13.95l-18.78-22.58-0.43-0.52-4.93 4.1c1.87 2.25 4.68 5.63 8.42 10.12 1.87 2.25 3.96 4.76 6.26 7.53 2.47 2.63 4.87 5.32 7.17 8.09 1.26 1.88 3.35 4.39 6.26 7.53 2.9 3.15 4.94 5.41 6.08 6.79 0.43 0.52-0.21 1.34-1.9 2.46l-0.26 0.22c-0.66 0.26-1.18 0.69-1.56 1.29-0.55 0.75-1 1.27-1.34 1.55-0.69 0.58-1.24 0.44-1.64-0.39-1.44-1.73-3.88-4.67-7.34-8.82-3.11-4.44-5.59-7.78-7.47-10.03-11.4-13.35-17.9-20.82-19.51-22.41-1.27-0.11-2.33-0.69-3.2-1.73-0.72-0.86-0.01-2.47 2.12-4.84 0.69-0.57 1.51-0.82 2.46-0.73l7.53-6.26c0.38-0.6 0.75-1.21 1.13-1.81 2.42-2.01 4.21-2.33 5.36-0.94 0.43 0.52 0.77 1.11 1.04 1.77 0.6 2.13 4 6.92 10.18 14.36 0.58 0.69 1.02 1.06 1.34 1.08 1.12 1.7 2.93 3.71 5.44 6.01 2.47 2.63 4.29 4.63 5.44 6.01 2.88 3.46 2.6 6.48-0.83 9.03-2.25 1.87-4.94 1.63-8.08-0.74-0.61-0.38-1.05-0.73-1.34-1.08 0.17-0.14 0.5-0.27 1-0.39 0.49-0.11 0.83-0.4 1.04-0.86 1.52-0.99 1.63-2.25 0.34-3.81z" fill="#E2B760" p-id="572"></path><path d="M600.19 297.86s0.57-49.41 24.6-47.41 20.48 24.58 14.07 35-25.63 18.42-25.63 18.42l-5.71-3.1s22.53-8.71 26.58-25.38c4.42-18.18-16.07-22.68-21.93-4.81-2.88 8.8-6.46 27.19-6.46 27.19l-5.52 0.09z" fill="#F9D98A" p-id="573"></path><path d="M823.44 855.96c-3.63 0-7.3-0.48-10.91-1.49-42.52-11.8-46.01-47.67-49.7-85.65-2.81-28.92-5.72-58.83-26.06-80.49-23.24-24.75-66.57-34.96-132.46-31.23-43.86 1.4-85.59-2.91-124.09-12.81-34.48-8.87-66.51-22.22-95.2-39.71-48.09-29.31-86.87-71.03-106.39-114.48-16.13-35.88-29.67-103.43-14.77-175.73 11.79-57.21 45.91-134.7 141.47-178.95 59.63-27.08 109.69-30.45 148.81-10 29.37 15.35 46.7 41.51 56.07 60.76 10.13 20.79 13.31 37.74 13.44 38.45l-4.92 0.9c-0.12-0.67-13-67.53-66.94-95.7-37.68-19.67-86.25-16.27-144.38 10.13-164.16 76.03-161.91 264.23-124.22 348.1 19.12 42.55 57.19 83.46 104.43 112.26 59.87 36.49 134.73 54.4 216.46 51.79 151.61-8.58 158.03 57.72 163.72 116.23 3.67 37.79 6.84 70.43 46.06 81.31 14.68 4.08 43.39-5.59 52.3-17.93 15.79-21.89 31.44-102.11-9.64-179.63-28.15-53.13-92.81-72.8-178.12-61.91-90.88 11.6-167.41 8.24-227.45-9.99-62.33-18.92-107.12-53.92-133.11-104.04-21.04-40.55-28.98-83.55-23.63-127.81 4.72-38.99 19.97-77.8 44.09-112.22 47.01-67.08 119.13-106.85 179.47-98.94 31 4.06 72.97 22.64 96.92 88.09l-4.7 1.72c-18.28-49.95-50.39-79.29-92.87-84.85-58.54-7.67-128.76 31.25-174.73 96.85-51.84 73.97-59.17 159.57-20.12 234.86 25.35 48.87 69.13 83.04 130.13 101.56 59.36 18.02 135.19 21.32 225.36 9.81 110.45-14.09 160.49 27.17 183.03 64.27 16.96 27.93 29.9 67.73 28.98 107.51-0.77 33.34-5.37 60.31-19.47 80.64-7.73 11.18-28.45 18.32-46.86 18.32z" fill="#FF8788" p-id="574"></path><path d="M628.14 266.77c-6.48 1.85-13.23-1.91-15.07-8.38l-10.54-36.94 23.46-6.69 10.54 36.94c1.84 6.47-1.91 13.22-8.39 15.07z" fill="#F9D98A" p-id="575"></path><path d="M556.84 507.27s-83.95 7.84-104.34 132.63l6.06 0.06s15.46-106.86 97.57-128.17c-2.08-7.54 0.71-4.52 0.71-4.52z" fill="#FCE2B9" p-id="576"></path><path d="M696.27 487.93c17.1-31.54 5.39-70.96-26.14-88.06a65.19 65.19 0 0 0-12.03-5.04c0.21-0.38 0.44-0.74 0.65-1.13 17.1-31.54 5.39-70.96-26.14-88.06-31.54-17.1-70.96-5.39-88.06 26.14-0.15 0.28-0.29 0.57-0.44 0.86a66.241 66.241 0 0 0-9.28-6.13c-31.54-17.1-70.96-5.39-88.06 26.14-12 22.13-9.8 48.13 3.47 67.59a64.643 64.643 0 0 0-27.33 26.77c-17.1 31.54-5.39 70.96 26.14 88.06 19.22 10.42 41.36 10.13 59.6 1.19 2.46 20.16 14.29 38.88 33.51 49.3 31.54 17.1 70.96 5.39 88.06-26.14a64.694 64.694 0 0 0 7.52-37.51c23.54 0.5 46.53-11.85 58.53-33.98z" fill="#FFA8A7" p-id="577"></path><path d="M692.82 476.47c17.1-31.54 5.39-70.96-26.14-88.06a65.19 65.19 0 0 0-12.03-5.04c0.21-0.38 0.44-0.74 0.65-1.13 17.1-31.54 5.39-70.96-26.14-88.06-31.54-17.1-70.96-5.39-88.06 26.14-0.15 0.28-0.29 0.57-0.44 0.86a66.241 66.241 0 0 0-9.28-6.13c-31.54-17.1-70.96-5.39-88.06 26.14-12 22.13-9.8 48.13 3.47 67.59a64.643 64.643 0 0 0-27.33 26.77c-17.1 31.54-5.39 70.96 26.14 88.06 19.22 10.42 41.36 10.13 59.6 1.19 2.46 20.16 14.29 38.88 33.51 49.3 31.54 17.1 70.96 5.39 88.06-26.14a64.694 64.694 0 0 0 7.52-37.51c23.54 0.49 46.53-11.85 58.53-33.98z" fill="#FDEFF2" p-id="578"></path><path d="M534.71 753.74s110.89-41.61 126.89 83.29c-69.02 28.31-129.97 5.13-126.89-83.29z" fill="#82AE46" p-id="579"></path><path d="M603.98 740.43c2.7-35.77-24.11-66.96-59.88-69.66-4.43-0.33-8.79-0.21-13.04 0.32 0.04-0.43 0.1-0.86 0.13-1.29 2.7-35.77-24.11-66.96-59.88-69.66-35.77-2.7-66.96 24.11-69.66 59.88-0.02 0.32-0.03 0.64-0.05 0.96-3.55-0.89-7.21-1.51-10.98-1.79-35.77-2.7-66.96 24.11-69.66 59.88-1.9 25.1 10.75 47.93 30.82 60.26a64.65 64.65 0 0 0-13.99 35.61c-2.7 35.77 24.11 66.96 59.88 69.66 21.8 1.65 41.88-7.68 54.87-23.3 10.49 17.39 28.95 29.63 50.74 31.28 35.77 2.7 66.96-24.11 69.66-59.88 1.02-13.52-2.18-26.39-8.48-37.31 21.69-9.19 37.62-29.86 39.52-54.96z" fill="#FDEFF2" p-id="580"></path><path d="M598.05 730.79c1.36-35.85-26.6-66.01-62.45-67.37-4.44-0.17-8.79 0.12-13.02 0.81 0.03-0.43 0.07-0.86 0.08-1.3 1.36-35.85-26.6-66.01-62.45-67.37-35.85-1.36-66.01 26.6-67.37 62.45-0.01 0.32 0 0.64-0.01 0.96-3.58-0.76-7.26-1.24-11.04-1.38-35.85-1.36-66.01 26.6-67.37 62.45-0.95 25.15 12.54 47.49 33.05 59.06-7.5 10.14-12.13 22.56-12.65 36.11-1.36 35.85 26.6 66.01 62.45 67.37 21.84 0.83 41.56-9.24 53.96-25.34 11.14 16.99 30.04 28.52 51.88 29.35 35.85 1.36 66.01-26.6 67.37-62.45 0.51-13.55-3.17-26.29-9.87-36.96 21.34-9.98 36.49-31.23 37.44-56.39z" fill="#FFA8A7" p-id="581"></path><path d="M452.5 747.09m-18.88 0a18.88 18.88 0 1 0 37.76 0 18.88 18.88 0 1 0-37.76 0Z" fill="#F7707F" p-id="582"></path><path d="M558.28 425.3m-18.88 0a18.88 18.88 0 1 0 37.76 0 18.88 18.88 0 1 0-37.76 0Z" fill="#FFC8C7" p-id="583"></path></svg>